<?xml version="1.0" standalone="no"?>
<!DOCTYPE svg PUBLIC "-//W3C//DTD SVG 20010904//EN"
 "http://www.w3.org/TR/2001/REC-SVG-20010904/DTD/svg10.dtd">
<svg version="1.0" xmlns="http://www.w3.org/2000/svg"
 width="1280.000000pt" height="773.000000pt" viewBox="0 0 1280.000000 773.000000"
 preserveAspectRatio="xMidYMid meet">
<metadata>
Created by potrace 1.15, written by Peter Selinger 2001-2017
</metadata>
<g transform="translate(0.000000,773.000000) scale(0.100000,-0.100000)"
fill="#000000" stroke="none">
<path d="M648 7720 c-225 -38 -434 -177 -547 -364 -52 -86 -91 -214 -98 -320
-8 -125 14 -233 74 -355 38 -81 58 -108 137 -185 167 -167 335 -236 569 -236
228 0 425 85 577 247 219 233 260 559 104 835 -155 275 -494 432 -816 378z"/>
<path d="M2410 7719 c-276 -46 -525 -252 -606 -503 -35 -107 -44 -277 -20
-381 48 -204 200 -394 391 -488 135 -67 202 -82 370 -82 129 0 160 3 225 23
260 82 441 254 522 497 20 60 23 89 23 210 -1 124 -4 149 -27 217 -71 213
-261 399 -478 472 -133 44 -270 56 -400 35z"/>
<path d="M4205 7723 c-262 -41 -484 -199 -591 -418 -52 -108 -74 -198 -74
-316 0 -265 153 -510 400 -638 117 -60 198 -82 331 -88 137 -7 220 6 339 50
224 85 398 274 460 500 27 97 29 241 5 342 -75 325 -376 560 -730 570 -60 2
-123 1 -140 -2z"/>
<path d="M5958 7720 c-296 -54 -529 -249 -614 -515 -108 -337 59 -708 391
-866 114 -55 183 -71 325 -76 139 -6 244 13 354 61 190 84 348 251 412 436 91
262 25 540 -177 740 -103 102 -213 165 -364 207 -61 17 -262 25 -327 13z"/>
<path d="M7698 7720 c-363 -62 -627 -346 -645 -695 -6 -130 13 -222 71 -340
97 -195 277 -343 491 -401 93 -25 275 -30 376 -9 482 97 747 587 548 1014
-142 307 -497 489 -841 431z"/>
<path d="M10201 7264 c-234 -41 -475 -200 -609 -401 -19 -29 -427 -710 -908
-1515 l-873 -1463 -2728 -5 c-3077 -6 -2759 4 -2943 -87 -79 -39 -109 -60
-185 -137 -104 -104 -153 -187 -185 -312 -93 -364 132 -722 527 -836 l78 -23
2825 0 2825 0 78 23 c220 63 453 237 581 432 35 52 461 762 946 1578 l884
1482 812 0 c659 0 826 3 886 14 288 55 515 254 574 502 30 127 3 284 -68 405
-71 118 -212 232 -360 289 -151 58 -166 59 -1172 62 -656 2 -938 0 -985 -8z"/>
<path d="M1800 5845 c-270 -55 -492 -242 -576 -485 -54 -156 -54 -315 0 -471
36 -103 81 -173 171 -265 94 -95 182 -150 315 -196 91 -31 101 -32 250 -32
149 0 159 1 250 32 133 46 221 101 315 196 92 93 144 177 182 291 23 70 27 96
27 210 0 114 -4 140 -27 210 -87 262 -314 457 -594 511 -91 17 -226 17 -313
-1z"/>
<path d="M3605 5853 c-292 -46 -534 -245 -621 -509 -26 -80 -29 -103 -29 -219
0 -116 3 -139 29 -218 60 -184 184 -327 367 -426 122 -66 210 -86 374 -86 116
0 154 4 219 23 335 97 558 379 558 707 0 326 -223 610 -552 705 -74 22 -273
35 -345 23z"/>
<path d="M5358 5850 c-286 -52 -518 -252 -610 -525 -19 -59 -23 -90 -23 -200
0 -110 4 -141 23 -200 73 -219 245 -402 449 -478 120 -45 154 -51 298 -52 117
0 153 4 219 23 219 63 386 197 481 387 59 117 78 195 78 320 0 121 -19 201
-72 310 -94 191 -268 334 -481 395 -84 24 -281 35 -362 20z"/>
<path d="M7110 5845 c-161 -32 -314 -117 -422 -234 -79 -86 -122 -157 -161
-268 -29 -82 -31 -98 -31 -218 0 -113 4 -140 27 -210 38 -115 90 -198 182
-291 94 -95 183 -150 315 -196 91 -31 101 -32 250 -32 149 0 159 1 250 32 275
95 460 297 514 564 20 98 20 169 0 266 -20 96 -54 181 -101 251 -175 265 -505
399 -823 336z"/>
<path d="M3090 2003 c-300 -47 -535 -175 -702 -382 -312 -387 -283 -920 69
-1275 201 -203 459 -308 758 -308 485 -1 895 303 1016 752 32 118 33 347 1
463 -106 387 -433 675 -843 742 -86 14 -238 18 -299 8z"/>
<path d="M7175 1969 c-360 -35 -694 -267 -841 -584 -66 -142 -79 -210 -78
-400 0 -155 3 -178 27 -258 50 -162 118 -277 240 -404 138 -144 296 -234 506
-291 85 -22 116 -25 261 -25 145 0 176 3 261 25 210 57 368 147 506 291 93 97
139 164 193 281 63 134 75 198 75 386 0 142 -3 176 -23 244 -139 481 -606 785
-1127 735z"/>
</g>
</svg>
